<svg width="20" height="20" viewBox="0 0 20 20" fill="none" xmlns="http://www.w3.org/2000/svg">
<path d="M5.83337 15C4.30927 15.3431 3.33337 15.8703 3.33337 16.4614C3.33337 17.4953 6.31814 18.3333 10 18.3333C13.682 18.3333 16.6667 17.4953 16.6667 16.4614C16.6667 15.8703 15.6908 15.3431 14.1667 15" stroke="#999999" stroke-width="1.25" stroke-linecap="round"/>
<path d="M12.0833 7.49999C12.0833 8.65057 11.1505 9.58332 9.99996 9.58332C8.84938 9.58332 7.91663 8.65057 7.91663 7.49999C7.91663 6.3494 8.84938 5.41666 9.99996 5.41666C11.1505 5.41666 12.0833 6.3494 12.0833 7.49999Z" stroke="#999999" stroke-width="1.25"/>
<path d="M11.0478 14.578C10.7667 14.8487 10.391 15 10.0001 15C9.60913 15 9.23346 14.8487 8.95238 14.578C6.37854 12.084 2.92928 9.29791 4.61138 5.2531C5.52088 3.06609 7.70408 1.66666 10.0001 1.66666C12.2961 1.66666 14.4793 3.0661 15.3888 5.2531C17.0688 9.29282 13.628 12.0926 11.0478 14.578Z" stroke="#999999" stroke-width="1.25"/>
</svg>
