<svg width="52" height="52" viewBox="0 0 52 52" fill="none" xmlns="http://www.w3.org/2000/svg">
<path fill-rule="evenodd" clip-rule="evenodd" d="M24.401 47.9572C24.401 47.9572 8.66669 34.7058 8.66669 21.6668C8.66669 17.0697 10.4929 12.6609 13.7435 9.41031C16.9941 6.15968 21.4029 4.3335 26 4.3335C30.5971 4.3335 35.0059 6.15968 38.2565 9.41031C41.5072 12.6609 43.3334 17.0697 43.3334 21.6668C43.3334 34.7058 27.599 47.9572 27.599 47.9572C26.7237 48.7632 25.2829 48.7545 24.401 47.9572ZM26 29.2502C26.9959 29.2502 27.982 29.054 28.902 28.6729C29.8221 28.2918 30.6581 27.7332 31.3622 27.0291C32.0664 26.3249 32.625 25.4889 33.0061 24.5688C33.3872 23.6488 33.5834 22.6627 33.5834 21.6668C33.5834 20.671 33.3872 19.6849 33.0061 18.7648C32.625 17.8448 32.0664 17.0088 31.3622 16.3046C30.6581 15.6004 29.8221 15.0418 28.902 14.6607C27.982 14.2796 26.9959 14.0835 26 14.0835C23.9888 14.0835 22.0599 14.8825 20.6378 16.3046C19.2156 17.7268 18.4167 19.6556 18.4167 21.6668C18.4167 23.6781 19.2156 25.6069 20.6378 27.0291C22.0599 28.4512 23.9888 29.2502 26 29.2502Z" fill="url(#paint0_linear_276_1328)"/>
<defs>
<linearGradient id="paint0_linear_276_1328" x1="8.66669" y1="4.3335" x2="22.2597" y2="54.2922" gradientUnits="userSpaceOnUse">
<stop stop-color="#EA3433"/>
<stop offset="1" stop-color="#BC2624"/>
</linearGradient>
</defs>
</svg>
