<svg width="24" height="24" viewBox="0 0 24 24" fill="none" xmlns="http://www.w3.org/2000/svg">
<path d="M11 21.9498V20.9498C8.91666 20.7165 7.12899 19.8541 5.63699 18.3628C4.14499 16.8715 3.28266 15.0838 3.04999 12.9998H2.04999C1.76666 12.9998 1.52932 12.9038 1.33799 12.7118C1.14666 12.5198 1.05066 12.2825 1.04999 11.9998C1.04932 11.7171 1.14532 11.4798 1.33799 11.2878C1.53066 11.0958 1.76799 10.9998 2.04999 10.9998H3.04999C3.28332 8.91648 4.14599 7.12881 5.63799 5.63681C7.12999 4.14481 8.91733 3.28247 11 3.04981V2.04981C11 1.76647 11.096 1.52914 11.288 1.33781C11.48 1.14647 11.7173 1.05047 12 1.04981C12.2827 1.04914 12.5203 1.14514 12.713 1.33781C12.9057 1.53047 13.0013 1.76781 13 2.04981V3.04981C15.0833 3.28314 16.871 4.14581 18.363 5.63781C19.855 7.12981 20.7173 8.91714 20.95 10.9998H21.95C22.2333 10.9998 22.471 11.0958 22.663 11.2878C22.855 11.4798 22.9507 11.7171 22.95 11.9998C22.9493 12.2825 22.8537 12.5201 22.663 12.7128C22.4723 12.9055 22.2347 13.0011 21.95 12.9998H20.95C20.7167 15.0831 19.8543 16.8708 18.363 18.3628C16.8717 19.8548 15.084 20.7171 13 20.9498V21.9498C13 22.2331 12.904 22.4708 12.712 22.6628C12.52 22.8548 12.2827 22.9505 12 22.9498C11.7173 22.9491 11.48 22.8535 11.288 22.6628C11.096 22.4721 11 22.2345 11 21.9498ZM12 18.9998C13.9333 18.9998 15.5833 18.3165 16.95 16.9498C18.3167 15.5831 19 13.9331 19 11.9998C19 10.0665 18.3167 8.41648 16.95 7.04981C15.5833 5.68314 13.9333 4.99981 12 4.99981C10.0667 4.99981 8.41666 5.68314 7.04999 7.04981C5.68332 8.41648 4.99999 10.0665 4.99999 11.9998C4.99999 13.9331 5.68332 15.5831 7.04999 16.9498C8.41666 18.3165 10.0667 18.9998 12 18.9998ZM12 15.9998C10.9 15.9998 9.95833 15.6081 9.17499 14.8248C8.39166 14.0415 7.99999 13.0998 7.99999 11.9998C7.99999 10.8998 8.39166 9.95814 9.17499 9.17481C9.95833 8.39148 10.9 7.99981 12 7.99981C13.1 7.99981 14.0417 8.39148 14.825 9.17481C15.6083 9.95814 16 10.8998 16 11.9998C16 13.0998 15.6083 14.0415 14.825 14.8248C14.0417 15.6081 13.1 15.9998 12 15.9998Z" fill="url(#paint0_linear_274_1314)"/>
<defs>
<linearGradient id="paint0_linear_274_1314" x1="1.04999" y1="1.0498" x2="6.47045" y2="26.4646" gradientUnits="userSpaceOnUse">
<stop stop-color="#EA3433"/>
<stop offset="1" stop-color="#BC2624"/>
</linearGradient>
</defs>
</svg>
