<svg width="40" height="40" viewBox="0 0 40 40" fill="none" xmlns="http://www.w3.org/2000/svg">
<g clip-path="url(#clip0_273_1104)">
<path d="M27.7429 12.3877L17.1875 15.2002L20 31.9997L27.2055 22.4549C28.3465 20.9437 29.0234 19.0626 29.0234 17.0231C29.0234 15.3281 28.5557 13.7426 27.7429 12.3877Z" fill="#0F9D58"/>
<path d="M16.4851 27.3444L20 32.0003V22.6748L16.4851 27.3444Z" fill="#31AA52"/>
<path d="M20 22.6745L22.7153 19.0673L20 17.0234L17.1875 19.849L20 22.6745Z" fill="#F69411"/>
<path d="M20 8L17.1875 11.0923L20 14.1846L22.3127 8.29967C21.558 8.1003 20.7806 7.99957 20 8Z" fill="#4175DF"/>
<path d="M12.7905 11.5967V17.0234H20V8C17.0536 8 14.4374 9.41234 12.7905 11.5967Z" fill="#4086F4"/>
<path d="M12.7905 11.5967C11.6519 13.107 10.9766 14.9863 10.9766 17.0234C10.9766 18.7183 11.4444 20.3037 12.2573 21.6584L18.6909 16.038L12.7905 11.5967Z" fill="#EB4132"/>
<path d="M22.3127 8.29968L20 11.3722L16.6016 19.0673H22.7153L27.7429 12.3881C26.5492 10.3985 24.6107 8.90728 22.3127 8.29968Z" fill="#4086F4"/>
<path d="M20 11.3721L17.2847 14.9795L20 17.0234V11.3721Z" fill="#609AF6"/>
<path d="M17.1875 17.0234L20 22.6745L22.7153 19.0673L17.1875 17.0234Z" fill="#F8A808"/>
<path d="M17.2847 14.9796L12.2573 21.6584C12.4221 21.9334 12.6014 22.1993 12.7945 22.4552L16.4852 27.3441L20 22.6746V17.0234L17.2847 14.9796Z" fill="#FBBD00"/>
<path d="M20 13.625L18.3008 17.0234L20 20.4219C21.8769 20.4219 23.3984 18.9004 23.3984 17.0234C23.3984 15.1465 21.8769 13.625 20 13.625Z" fill="#F5F6F7"/>
<path d="M16.6016 17.0234C16.6016 18.9004 18.1231 20.4219 20 20.4219V13.625C18.1231 13.625 16.6016 15.1465 16.6016 17.0234Z" fill="white"/>
</g>
<defs>
<clipPath id="clip0_273_1104">
<rect width="24" height="24" fill="white" transform="translate(8 8)"/>
</clipPath>
</defs>
</svg>
